<?xml version="1.0" encoding="utf-8"?>
<!-- Generator: Adobe Illustrator 16.0.0, SVG Export Plug-In . SVG Version: 6.00 Build 0)  -->
<!DOCTYPE svg PUBLIC "-//W3C//DTD SVG 1.1 Tiny//EN" "http://www.w3.org/Graphics/SVG/1.1/DTD/svg11-tiny.dtd">
<svg version="1.1" baseProfile="tiny" id="logotype"
	 xmlns="http://www.w3.org/2000/svg" xmlns:xlink="http://www.w3.org/1999/xlink" x="0px" y="0px" width="333.114px"
	 height="96.198px" viewBox="0 0 333.114 96.198" xml:space="preserve">
<g id="type">
	<path fill="#1D1D1B" d="M171.367,63.667c0-0.25-0.076-0.496-0.226-0.73c-0.278-0.537-0.722-0.877-1.284-0.982
		c-0.354-0.066-0.739-0.191-1.176-0.385c-0.295-0.111-0.528-0.29-0.693-0.521c-0.2-0.317-0.322-0.761-0.364-1.315
		c-0.049-0.623-0.073-1.289-0.073-1.977V41.222c0-1.451-0.039-2.859-0.113-4.185c-0.078-1.382-0.359-2.62-0.832-3.673
		c-1.109-2.535-3.062-4.275-5.803-5.172c-2.641-0.863-5.766-1.273-9.312-1.226l-0.229,0.003l-0.103,0.104
		c-0.061,0.009-0.224,0.02-0.452,0.006c-0.519-0.029-0.893-0.008-1.104,0.046c-0.533,0.098-1.058,0.17-1.562,0.218
		c-0.538,0.052-1.073,0.13-1.631,0.243c-2.193,0.612-4.06,1.43-5.549,2.432c-1.517,1.02-2.787,2.458-3.79,4.312
		c-0.257,0.562-0.479,1.152-0.663,1.753c-0.175,0.573-0.342,1.202-0.494,1.859c-0.125,0.496-0.124,0.973,0.004,1.414
		c0.132,0.469,0.352,0.82,0.653,1.046c0.277,0.208,0.689,0.353,1.26,0.442c0.996,0.157,2.088,0.157,3.093,0
		c0.569-0.09,0.981-0.233,1.25-0.435c0.455-0.327,0.767-0.783,0.925-1.356c0.118-0.423,0.25-0.835,0.382-1.189
		c0.234-0.516,0.507-1.003,0.812-1.449c0.289-0.422,0.611-0.768,0.939-1.014c0.755-0.518,1.541-0.924,2.327-1.201
		c0.562-0.187,1.254-0.33,2.057-0.424c1.651-0.194,3.465-0.193,5.067,0c0.767,0.093,1.435,0.256,1.999,0.491
		c0.949,0.362,1.689,0.86,2.196,1.477c0.519,0.633,0.922,1.515,1.2,2.631c0.17,0.639,0.173,1.225,0.008,1.74
		c-0.178,0.561-0.401,1.021-0.668,1.377c-0.568,0.786-1.312,1.265-2.273,1.461c-1.09,0.223-2.279,0.488-3.541,0.791
		c-0.365,0.091-0.71,0.148-1.027,0.172c-0.39,0.028-0.78,0.098-1.143,0.202c-0.352,0.088-0.67,0.132-0.947,0.132
		c-0.374,0-0.766,0.059-1.121,0.162c-0.73,0.146-1.474,0.27-2.209,0.367c-0.771,0.104-1.528,0.26-2.255,0.468
		c-1.865,0.554-3.601,1.192-5.159,1.897c-1.643,0.742-2.959,1.896-3.904,3.418c-0.324,0.486-0.596,1.03-0.809,1.616l-0.599,1.646
		l-0.025,0.098c-0.053,0.314-0.092,0.616-0.118,0.901c-0.024,0.261-0.06,0.506-0.104,0.729l-0.011,1.682
		c0,1.612,0.241,3.018,0.713,4.174c0.629,1.573,1.447,2.815,2.431,3.69c0.965,0.861,2.236,1.638,3.783,2.306
		c0.388,0.166,0.805,0.291,1.24,0.373c0.387,0.072,0.774,0.156,1.125,0.242c0.242,0.08,0.421,0.103,0.724,0.053
		c0.025,0,0.076,0.003,0.162,0.021c0.26,0.118,0.549,0.178,0.861,0.178c0.211,0,0.425,0.021,0.636,0.064l0.731,0.012
		c0.266,0.049,0.542,0.074,0.82,0.074s0.565-0.025,0.854-0.074h0.512c0.208,0,0.452-0.029,0.737-0.086
		c0.534-0.096,1.083-0.17,1.631-0.216c0.608-0.054,1.188-0.161,1.719-0.319c0.873-0.258,1.7-0.555,2.459-0.885
		c0.769-0.332,1.498-0.709,2.184-1.133c0.471-0.314,0.953-0.68,1.435-1.086c0.411-0.346,0.837-0.576,1.341-0.711
		c0.093,0.078,0.179,0.154,0.255,0.23c0.245,0.244,0.456,0.574,0.626,0.979c0.217,0.514,0.464,0.967,0.736,1.348
		c0.473,0.65,1.283,1.168,2.479,1.585c0.7,0.244,1.416,0.368,2.129,0.368c0.475,0,0.959-0.055,1.49-0.179
		c0.24-0.08,0.471-0.121,0.682-0.121c0.345,0,0.68-0.063,1.039-0.209c0.598-0.3,1.08-0.766,1.434-1.384
		c0.365-0.641,0.463-1.438,0.287-2.371C171.377,63.892,171.367,63.745,171.367,63.667z M160.139,50.649
		c0,0.964-0.013,1.928-0.037,2.865c-0.024,0.85-0.173,1.598-0.451,2.246c-0.512,1.349-1.248,2.428-2.188,3.209
		c-0.974,0.807-2.171,1.508-3.566,2.085c-0.302,0.13-0.616,0.217-0.937,0.259c-0.389,0.052-0.8,0.131-1.264,0.248
		c-0.18,0.061-0.359,0.091-0.536,0.091l0,0c-0.045,0-0.09-0.001-0.138-0.006c-0.374-0.032-0.758,0.019-1.099,0.134
		c-0.288,0.081-0.67,0.113-1.127,0.09c-0.484-0.023-0.881-0.079-1.229-0.178c-0.497-0.098-0.981-0.053-1.461-0.142
		c-0.695-0.234-1.353-0.529-1.957-0.878c-0.578-0.332-1.048-0.746-1.395-1.225c-0.224-0.312-0.416-0.662-0.573-1.047
		c-0.145-0.35-0.219-0.742-0.22-1.194c-0.047-1.022,0.044-1.899,0.272-2.606c0.223-0.691,0.561-1.289,1.003-1.776
		c0.454-0.499,1.007-0.926,1.645-1.267c0.66-0.354,1.382-0.654,2.114-0.886c0.396-0.099,0.753-0.185,1.076-0.259
		c0.328-0.076,0.692-0.164,1.103-0.267c0.704-0.187,1.479-0.294,2.304-0.318c0.887-0.024,1.725-0.138,2.49-0.337
		c0.206-0.003,0.393-0.017,0.564-0.043c0.146-0.02,0.283-0.031,0.408-0.031l0.109-0.012c0.498-0.098,0.998-0.197,1.496-0.299
		c0.51-0.102,0.968-0.202,1.376-0.306l0.112-0.042c0.123-0.061,0.261-0.09,0.422-0.09c0.281,0,0.512-0.049,0.697-0.147
		c0.432,0.011,0.566,0.06,0.548,0.043c0.217,0.157,0.333,0.364,0.364,0.649C160.114,49.651,160.139,50.134,160.139,50.649z"/>
	<path fill="#1D1D1B" d="M205.985,53.593c-0.104-0.615-0.204-1.092-0.309-1.453l-0.025-0.069c-0.524-1.208-1.194-2.223-1.987-3.017
		c-0.775-0.775-1.693-1.484-2.73-2.105c-0.27-0.162-0.547-0.301-0.827-0.414l-0.747-0.299c-1.008-0.402-2.035-0.75-3.055-1.03
		c-0.994-0.273-2.014-0.56-3.051-0.856c-0.665-0.203-1.347-0.361-2.024-0.467c-0.618-0.094-1.245-0.238-1.868-0.432
		c-1.003-0.301-2.022-0.568-3.03-0.795c-0.933-0.21-1.78-0.551-2.522-1.015c-0.635-0.391-1.159-0.744-1.562-1.054
		c-0.34-0.26-0.644-0.721-0.905-1.373c-0.086-0.213-0.164-0.483-0.232-0.803c-0.056-0.262-0.047-0.515,0.034-0.803
		c0.269-1.159,0.752-1.951,1.479-2.422c0.787-0.51,1.81-0.913,3.018-1.192c0.232-0.045,0.465-0.081,0.699-0.104
		c0.257-0.026,0.508-0.063,0.746-0.11h0.484l0.086-0.028c0.242-0.081,0.561-0.121,0.945-0.121s0.701,0.041,0.943,0.121l0.064,0.018
		c0.303,0.062,0.615,0.076,0.916,0.046c0.16-0.016,0.318,0.008,0.486,0.075l0.062,0.02c0.738,0.198,1.437,0.397,2.075,0.593
		c0.584,0.18,1.133,0.455,1.605,0.796c0.741,0.604,1.324,1.28,1.747,2.03c0.222,0.358,0.391,0.727,0.499,1.095
		c0.164,0.561,0.511,1.008,1.035,1.336c0.329,0.195,0.828,0.327,1.574,0.412c0.717,0.084,1.328,0.062,1.744-0.043
		c0.177-0.036,0.354-0.036,0.529-0.001c0.355,0.071,0.717,0.036,1.066-0.104l0.109-0.044l0.082-0.083
		c0.055-0.056,0.131-0.107,0.226-0.154c0.209-0.104,0.382-0.226,0.524-0.37l0.104-0.145c0.127-0.256,0.219-0.596,0.278-1.038
		c0.06-0.448,0.028-0.89-0.092-1.314c-0.199-0.7-0.405-1.352-0.609-1.938c-0.214-0.614-0.509-1.22-0.874-1.794
		c-1.41-2.296-3.42-3.923-5.976-4.836c-2.497-0.891-5.606-1.314-9.251-1.268l-0.23,0.003l-0.095,0.095
		c-0.024-0.002-0.052-0.007-0.083-0.013c-0.319-0.062-0.591-0.063-0.82,0c-0.389,0.049-0.74,0.098-1.057,0.146
		c-0.323,0.05-0.656,0.1-1.003,0.149l-0.059,0.011c-0.999,0.25-1.964,0.518-2.87,0.794c-0.939,0.287-1.812,0.67-2.611,1.151
		c-1.033,0.672-1.965,1.458-2.766,2.337c-0.814,0.893-1.468,1.958-1.92,3.118c-0.127,0.251-0.209,0.499-0.242,0.735
		c-0.02,0.132-0.07,0.303-0.152,0.508l-0.031,0.107c-0.104,0.572-0.181,1.242-0.232,2.048c-0.053,0.827,0.002,1.577,0.166,2.229
		c0.098,0.393,0.184,0.762,0.257,1.104c0.081,0.382,0.206,0.769,0.37,1.151c0.48,1.121,1.158,2.07,2.017,2.821
		c0.819,0.718,1.731,1.368,2.69,1.924c0.431,0.27,0.899,0.491,1.395,0.655c0.406,0.136,0.861,0.303,1.387,0.512
		c1.629,0.662,3.396,1.141,5.254,1.42c1.755,0.264,3.477,0.664,5.116,1.189c0.217,0.133,0.437,0.199,0.652,0.199
		c0.042,0,0.117,0.009,0.22,0.041l1.645,0.599c0.506,0.185,0.97,0.416,1.41,0.708c0.649,0.372,1.186,0.779,1.591,1.207
		c0.38,0.402,0.687,1.037,0.923,1.924c0.026,0.08,0.072,0.249,0.129,0.588c0.031,0.197,0.019,0.367-0.044,0.521l-0.026,0.084
		c-0.318,1.408-0.852,2.407-1.587,2.969c-0.788,0.603-1.881,1.1-3.209,1.467c-0.233,0.047-0.49,0.081-0.763,0.104
		c-0.312,0.026-0.628,0.065-0.986,0.127c-0.105,0.025-0.311,0.058-0.686,0.058l-0.137,0.017c-0.35,0.088-0.794,0.133-1.322,0.133
		c-0.521,0-0.935-0.043-1.227-0.127l-0.566-0.022l-1.49-0.214c-0.828-0.242-1.614-0.488-2.336-0.729
		c-0.686-0.229-1.312-0.553-1.874-0.974c-0.761-0.537-1.378-1.316-1.841-2.336c-0.183-0.363-0.332-0.767-0.445-1.2
		c-0.158-0.601-0.471-1.071-0.941-1.409c-0.219-0.146-0.561-0.258-1.077-0.35c-0.433-0.076-0.886-0.141-1.345-0.191
		c-0.48-0.053-0.959-0.066-1.441-0.041c-0.516,0.031-0.916,0.104-1.223,0.227l-0.072,0.035c-0.419,0.24-0.72,0.484-0.918,0.748
		l-0.073,0.129c-0.124,0.309-0.198,0.697-0.227,1.186c-0.03,0.502,0.015,0.928,0.134,1.278c0.253,0.862,0.537,1.665,0.846,2.383
		c0.312,0.73,0.709,1.444,1.181,2.123c0.884,1.251,1.942,2.282,3.144,3.065c1.189,0.773,2.594,1.426,4.152,1.926
		c0.43,0.161,0.849,0.283,1.246,0.361c0.365,0.073,0.742,0.158,1.133,0.256l0.137,0.017c0.336,0,0.611,0.02,0.819,0.058
		c0.315,0.113,0.671,0.158,1.093,0.129c0.272-0.018,0.525,0.008,0.753,0.084l0.087,0.029h0.862c0.283,0.051,0.645,0.075,1.101,0.075
		c0.454,0,0.814-0.024,1.1-0.075h0.695l0.111-0.012c0.457-0.092,0.924-0.139,1.386-0.139c0.534,0,1.075-0.053,1.606-0.16
		l0.067-0.018c0.419-0.141,0.854-0.245,1.294-0.314c0.496-0.078,0.991-0.199,1.484-0.361c1.582-0.562,3.027-1.247,4.299-2.036
		c1.315-0.816,2.41-1.923,3.248-3.285c0.266-0.425,0.507-0.907,0.721-1.438c0.211-0.533,0.394-1.082,0.539-1.623
		c0.115-0.397,0.173-0.803,0.173-1.203c0-0.295,0.043-0.596,0.128-0.892l0.021-0.903c0-0.448-0.013-0.875-0.039-1.274
		C206.155,54.354,206.089,53.961,205.985,53.593z"/>
	<path fill="#1D1D1B" d="M242.348,53.593c-0.102-0.598-0.204-1.086-0.308-1.451l-0.026-0.072c-0.526-1.207-1.195-2.222-1.987-3.016
		c-0.778-0.777-1.696-1.486-2.729-2.105c-0.272-0.162-0.55-0.302-0.829-0.414l-0.093-0.037c-0.218-0.086-0.435-0.173-0.653-0.262
		c-1.012-0.404-2.039-0.75-3.054-1.03c-0.996-0.273-2.015-0.56-3.051-0.856c-0.668-0.204-1.351-0.361-2.025-0.467
		c-0.616-0.094-1.243-0.238-1.868-0.432c-1.01-0.303-2.03-0.57-3.032-0.795c-0.932-0.21-1.779-0.551-2.521-1.016
		c-0.632-0.387-1.156-0.741-1.562-1.053c-0.34-0.26-0.644-0.721-0.904-1.373c-0.087-0.214-0.165-0.484-0.233-0.805
		c-0.056-0.26-0.047-0.513,0.035-0.801c0.268-1.16,0.751-1.952,1.479-2.422c0.787-0.51,1.811-0.913,3.019-1.192
		c0.231-0.045,0.464-0.081,0.696-0.104c0.261-0.027,0.506-0.063,0.748-0.11h0.484l0.087-0.029c0.24-0.08,0.559-0.121,0.943-0.121
		c0.386,0,0.704,0.041,0.946,0.121l0.064,0.017c0.302,0.062,0.613,0.077,0.916,0.046c0.156-0.016,0.32,0.01,0.485,0.075l0.062,0.02
		c0.729,0.196,1.428,0.395,2.074,0.593c0.586,0.181,1.135,0.455,1.606,0.796c0.739,0.602,1.322,1.278,1.747,2.031
		c0.22,0.353,0.39,0.722,0.499,1.094c0.163,0.56,0.509,1.007,1.036,1.337c0.328,0.195,0.827,0.327,1.572,0.412
		c0.718,0.084,1.328,0.062,1.746-0.043c0.176-0.036,0.352-0.035,0.527-0.001c0.357,0.071,0.718,0.036,1.068-0.104l0.107-0.044
		l0.083-0.083c0.055-0.056,0.131-0.108,0.224-0.153c0.207-0.103,0.378-0.223,0.523-0.369l0.065-0.064l0.041-0.082
		c0.128-0.256,0.219-0.596,0.278-1.038c0.06-0.448,0.029-0.89-0.092-1.315c-0.202-0.705-0.406-1.356-0.607-1.938
		c-0.216-0.613-0.512-1.219-0.876-1.792c-1.409-2.297-3.421-3.924-5.977-4.837c-2.496-0.892-5.609-1.313-9.25-1.268l-0.229,0.003
		l-0.096,0.096c-0.025-0.003-0.053-0.007-0.083-0.014c-0.322-0.063-0.589-0.063-0.823,0c-0.386,0.049-0.737,0.098-1.055,0.146
		c-0.323,0.05-0.656,0.1-1.002,0.149l-0.059,0.011c-0.993,0.249-1.96,0.516-2.871,0.794c-0.939,0.287-1.812,0.67-2.611,1.151
		c-1.036,0.674-1.966,1.46-2.766,2.338c-0.813,0.891-1.467,1.957-1.922,3.122c-0.127,0.255-0.207,0.501-0.239,0.728
		c-0.021,0.134-0.071,0.306-0.153,0.512l-0.03,0.107c-0.106,0.578-0.185,1.267-0.232,2.046c-0.054,0.826,0.001,1.576,0.165,2.229
		c0.096,0.394,0.184,0.763,0.258,1.104c0.082,0.385,0.206,0.773,0.369,1.152c0.479,1.119,1.158,2.068,2.018,2.821
		c0.82,0.718,1.73,1.368,2.69,1.925c0.435,0.271,0.901,0.49,1.394,0.654c0.413,0.137,0.868,0.305,1.388,0.512
		c1.627,0.662,3.395,1.14,5.252,1.42c1.757,0.264,3.479,0.665,5.117,1.189c0.221,0.135,0.436,0.199,0.655,0.199
		c0.04,0,0.115,0.009,0.217,0.041l1.646,0.599c0.502,0.183,0.966,0.415,1.408,0.708c0.649,0.372,1.186,0.779,1.592,1.207
		c0.381,0.404,0.688,1.039,0.923,1.924c0.026,0.08,0.071,0.249,0.128,0.588c0.032,0.197,0.02,0.367-0.043,0.521l-0.026,0.084
		c-0.316,1.408-0.851,2.406-1.587,2.969c-0.787,0.603-1.88,1.1-3.209,1.467c-0.233,0.047-0.487,0.08-0.761,0.104
		c-0.313,0.026-0.627,0.065-0.988,0.127c-0.104,0.025-0.31,0.058-0.686,0.058l-0.137,0.017c-0.351,0.088-0.794,0.133-1.321,0.133
		c-0.521,0-0.936-0.043-1.229-0.127l-0.564-0.022l-1.493-0.214c-0.814-0.238-1.602-0.484-2.335-0.729
		c-0.687-0.229-1.313-0.554-1.874-0.975c-0.761-0.536-1.378-1.314-1.841-2.334c-0.181-0.362-0.331-0.767-0.444-1.201
		c-0.158-0.599-0.469-1.069-0.944-1.411c-0.221-0.146-0.562-0.257-1.074-0.348c-0.437-0.076-0.889-0.141-1.346-0.191
		c-0.479-0.053-0.957-0.066-1.44-0.041c-0.518,0.031-0.918,0.104-1.225,0.227l-0.072,0.035c-0.418,0.24-0.718,0.484-0.917,0.748
		l-0.073,0.129c-0.125,0.312-0.199,0.701-0.226,1.187c-0.03,0.501,0.015,0.927,0.134,1.278c0.254,0.865,0.538,1.666,0.845,2.383
		c0.312,0.73,0.709,1.443,1.181,2.123c0.888,1.252,1.945,2.282,3.145,3.064c1.191,0.775,2.596,1.426,4.151,1.926
		c0.429,0.161,0.849,0.283,1.246,0.361c0.365,0.073,0.743,0.158,1.133,0.256l0.138,0.017c0.336,0,0.611,0.02,0.819,0.058
		c0.314,0.113,0.669,0.16,1.092,0.129c0.271-0.02,0.526,0.008,0.753,0.084l0.087,0.029h0.863c0.283,0.051,0.644,0.075,1.101,0.075
		c0.454,0,0.813-0.024,1.098-0.075h0.698l0.11-0.012c0.457-0.092,0.923-0.139,1.386-0.139c0.534,0,1.074-0.053,1.605-0.16
		l0.067-0.018c0.42-0.141,0.854-0.245,1.295-0.314c0.497-0.078,0.992-0.199,1.484-0.361c1.583-0.563,3.029-1.248,4.299-2.036
		c1.315-0.816,2.409-1.923,3.249-3.285c0.263-0.421,0.504-0.903,0.718-1.437c0.208-0.519,0.391-1.067,0.542-1.626
		c0.114-0.399,0.172-0.804,0.172-1.202c0-0.295,0.043-0.596,0.128-0.892l0.021-0.903c0-0.448-0.013-0.875-0.038-1.273
		C242.52,54.364,242.452,53.972,242.348,53.593z"/>
	<path fill="#1D1D1B" d="M281.624,45.145c-0.027-0.36-0.066-0.722-0.116-1.083l-0.018-0.076c-0.197-0.693-0.357-1.38-0.473-2.04
		c-0.133-0.734-0.33-1.448-0.59-2.123c-0.248-0.645-0.471-1.286-0.661-1.908c-0.212-0.69-0.511-1.34-0.874-1.912
		c-0.56-0.964-1.252-1.99-2.057-3.048c-0.31-0.416-0.696-0.842-1.149-1.27c-0.435-0.41-0.866-0.776-1.282-1.088l-0.087-0.054
		c-0.134-0.066-0.245-0.155-0.348-0.274c-0.197-0.229-0.455-0.413-0.766-0.546c-1.271-0.808-2.714-1.462-4.285-1.945
		c-1.594-0.488-3.492-0.712-5.64-0.66l-0.228,0.005l-0.065,0.067c-0.193-0.046-0.377-0.044-0.543,0.003
		c-0.235,0.003-0.452,0.017-0.644,0.042c-0.211,0.026-0.447,0.066-0.721,0.12c-0.695,0.149-1.354,0.286-1.976,0.41
		c-0.658,0.132-1.31,0.332-1.938,0.594c-2.1,0.87-3.893,1.975-5.328,3.283c-1.429,1.303-2.72,2.864-3.854,4.673
		c-0.31,0.568-0.583,1.156-0.816,1.748c-0.22,0.561-0.455,1.119-0.703,1.666c-0.318,0.74-0.545,1.541-0.675,2.38
		c-0.123,0.783-0.284,1.572-0.482,2.37c-0.061,0.299-0.077,0.617-0.047,0.949c0.016,0.186-0.007,0.357-0.074,0.525l-0.039,0.101
		v0.879c-0.052,0.291-0.064,0.627-0.037,1.024c0.026,0.372,0.062,0.663,0.111,0.887v0.983l0.014,0.121
		c0.095,0.429,0.166,0.862,0.215,1.288c0.053,0.481,0.133,0.936,0.23,1.316c0.044,0.221,0.065,0.387,0.065,0.491
		c0,0.2,0.03,0.423,0.104,0.702c0.192,0.582,0.35,1.165,0.469,1.732c0.133,0.637,0.334,1.256,0.591,1.82
		c0.713,1.73,1.604,3.32,2.651,4.725c1.057,1.418,2.351,2.635,3.87,3.627c0.863,0.51,1.686,0.945,2.426,1.289
		c0.248,0.125,0.478,0.206,0.682,0.24c0.066,0.012,0.183,0.044,0.366,0.135l0.055,0.024c0.419,0.157,0.863,0.301,1.322,0.427
		c0.458,0.127,0.914,0.241,1.383,0.346c0.269,0.053,0.566,0.094,0.889,0.122c0.275,0.022,0.53,0.057,0.736,0.099
		c0.247,0.059,0.492,0.09,0.731,0.09c0.159,0,0.349,0.021,0.562,0.064l0.721,0.011c0.235,0.05,0.515,0.075,0.851,0.075
		c0.33,0,0.638-0.025,0.911-0.075h0.697l0.11-0.011c0.506-0.104,0.915-0.052,1.412-0.148c0.544-0.1,1.061-0.185,1.552-0.258
		c0.535-0.08,1.081-0.23,1.592-0.436c1.997-0.664,3.68-1.539,5.001-2.602c1.316-1.057,2.503-2.427,3.531-4.071
		c0.674-1.091,1.222-2.345,1.629-3.72c0.4-1.28-0.069-1.968-0.553-2.322c-0.243-0.223-0.607-0.361-1.114-0.424
		c-0.408-0.051-0.847-0.09-1.308-0.117c-0.479-0.025-0.96-0.012-1.44,0.041c-0.531,0.06-0.901,0.148-1.145,0.271
		c-0.682,0.311-1.168,0.814-1.447,1.497c-0.21,0.515-0.462,1.017-0.76,1.516c-0.276,0.509-0.607,0.993-0.981,1.438
		c-0.363,0.43-0.799,0.808-1.315,1.137c-0.46,0.322-0.962,0.59-1.491,0.797c-0.56,0.22-1.185,0.428-1.858,0.619
		c-0.641,0.184-1.519,0.277-2.612,0.277c-1.093,0-1.973-0.094-2.612-0.277l-0.155-0.021c-0.402,0-0.537-0.035-0.596-0.054
		c-0.348-0.099-0.695-0.197-1.045-0.298c-0.322-0.094-0.608-0.203-0.904-0.352c-2.493-1.08-4.309-2.92-5.406-5.496
		c-0.179-0.354-0.313-0.727-0.403-1.112c-0.103-0.425-0.202-0.838-0.302-1.241c-0.039-0.153-0.058-0.309-0.058-0.461
		c0-0.227-0.028-0.48-0.084-0.777l-0.032-0.107c-0.049-0.119-0.046-0.236,0.008-0.382c0.105-0.29,0.188-0.439,0.237-0.515
		c0.188-0.281,0.32-0.377,0.42-0.428c0.168-0.102,0.41-0.164,0.718-0.184c0.388-0.023,0.772-0.037,1.162-0.037h19.155
		c0.44,0,0.957,0.014,1.547,0.038c1.162,0.051,2.509,0.077,3.516-0.081c0.575-0.092,1.017-0.264,1.348-0.528l0.049-0.044
		c0.344-0.345,0.556-0.881,0.645-1.638c0.082-0.676,0.068-1.302-0.037-1.83C281.684,45.817,281.646,45.478,281.624,45.145z
		 M267.224,34.423c1.261,0.519,2.302,1.157,3.09,1.897c0.805,0.759,1.554,1.7,2.217,2.79c0.523,0.905,0.932,1.893,1.218,2.939
		c0.069,0.244,0.07,0.471,0.004,0.689c-0.082,0.264-0.178,0.469-0.261,0.58c-0.121,0.139-0.475,0.372-1.483,0.372l-0.173-0.002
		c-1.054-0.025-1.956-0.038-2.707-0.038h-11.372c-0.703,0-1.543,0.013-2.522,0.038l-0.209,0.003c-0.902,0-1.311-0.164-1.52-0.32
		c-0.109-0.073-0.24-0.195-0.277-0.501c-0.043-0.333-0.021-0.694,0.065-1.079c0.089-0.406,0.206-0.793,0.347-1.145
		c0.14-0.349,0.277-0.637,0.426-0.887c0.67-1.291,1.43-2.379,2.261-3.234c0.809-0.832,1.905-1.54,3.261-2.104
		c0.319-0.09,0.658-0.171,1.011-0.242c0.382-0.077,0.777-0.166,1.225-0.28c0.07-0.023,0.171-0.027,0.276-0.013
		c0.273,0.035,0.519-0.003,0.74-0.108h1.127c0.396,0,0.778,0.045,1.133,0.132c0.407,0.103,0.787,0.191,1.143,0.268
		C266.567,34.25,266.895,34.331,267.224,34.423z"/>
	<path fill="#1D1D1B" d="M293.259,13.96l-0.062-0.072c-0.457-0.457-1.133-0.688-2.005-0.688h-2.059l-0.108-0.012l-0.119,0.06
		c-0.244-0.047-0.461-0.021-0.662,0.069c-0.661,0.244-1.11,0.558-1.364,0.941c-0.324,0.453-0.472,1.061-0.442,1.808
		c0.025,0.617,0.038,1.196,0.038,1.737v45.339c0,0.662,0.012,1.299,0.037,1.895c0.029,0.695,0.197,1.292,0.498,1.772l0.045,0.062
		c0.353,0.425,0.867,0.656,1.525,0.688c0.494,0.025,1.017,0.038,1.601,0.038h1.115l0.067-0.017c0.386-0.096,0.712-0.168,0.976-0.217
		c0.434-0.078,0.786-0.325,1.013-0.705c0.307-0.49,0.461-1.145,0.461-1.944V17.43c0-0.595-0.013-1.195-0.039-1.784
		C293.743,14.966,293.569,14.399,293.259,13.96z"/>
	<path fill="#1D1D1B" d="M332.375,28.318c-0.326-0.193-0.725-0.308-1.188-0.34c-0.378-0.025-0.781-0.038-1.196-0.038
		c-0.76,0-1.466,0.025-2.103,0.076c-0.786,0.063-1.413,0.388-1.846,0.949c-0.301,0.36-0.526,0.793-0.67,1.286
		c-0.13,0.438-0.26,0.829-0.406,1.218c-0.149,0.451-0.302,0.915-0.45,1.39c-0.142,0.447-0.312,0.894-0.511,1.346
		c-0.113,0.284-0.194,0.53-0.247,0.747c-0.043,0.169-0.108,0.365-0.199,0.592c-0.254,0.609-0.476,1.248-0.658,1.898
		c-0.168,0.601-0.375,1.196-0.615,1.775c-0.113,0.281-0.195,0.525-0.251,0.751c-0.04,0.17-0.107,0.37-0.203,0.607
		c-0.153,0.408-0.307,0.854-0.459,1.338c-0.142,0.446-0.31,0.893-0.501,1.325l-0.032,0.093c-0.094,0.377-0.166,0.688-0.218,0.934
		c-0.495,1.1-0.924,2.25-1.271,3.418c-0.346,1.158-0.744,2.314-1.183,3.436c-0.353,0.902-0.662,1.854-0.918,2.828
		c-0.241,0.912-0.556,1.787-0.95,2.626c-0.097,0.239-0.257,0.57-0.463,0.958c-0.052,0.1-0.112,0.17-0.142,0.17
		c-0.011,0-0.043-0.002-0.141-0.037c-0.127-0.035-0.271-0.109-0.379-0.377c-0.152-0.379-0.301-0.745-0.441-1.066
		c-0.25-0.695-0.499-1.403-0.747-2.125c-0.258-0.748-0.54-1.479-0.837-2.171l-0.051-0.093c-0.037-0.056-0.054-0.107-0.054-0.172
		c0-0.262-0.069-0.535-0.191-0.777c-0.597-1.441-1.146-2.937-1.632-4.445c-0.5-1.551-1.059-3.076-1.661-4.533
		c-0.237-0.568-0.43-1.146-0.573-1.715c-0.157-0.631-0.369-1.242-0.625-1.803c-0.24-0.574-0.46-1.176-0.656-1.788
		c-0.204-0.635-0.436-1.267-0.685-1.864c-0.243-0.63-0.465-1.272-0.661-1.908c-0.203-0.662-0.435-1.328-0.695-2.007
		c-0.2-0.448-0.385-0.87-0.56-1.271c-0.222-0.501-0.585-0.912-1.079-1.223c-0.501-0.313-1.205-0.449-2.187-0.422
		c-0.841,0.025-1.584,0.038-2.228,0.038l-0.108-0.011l-0.118,0.058c-0.229-0.045-0.435-0.024-0.627,0.053
		c-0.573,0.139-0.976,0.397-1.176,0.733c-0.25,0.351-0.479,0.956-0.144,1.837c0.195,0.515,0.344,0.919,0.455,1.248
		c0.441,1.082,0.868,2.171,1.265,3.237c0.399,1.075,0.856,2.206,1.354,3.346c0.897,2.194,1.781,4.387,2.655,6.579
		c0.872,2.196,1.759,4.394,2.648,6.565c0.251,0.703,0.501,1.382,0.753,2.033c0.243,0.635,0.515,1.302,0.824,2.027
		c0.398,0.996,0.797,2.014,1.194,3.058c0.394,1.031,0.824,2.097,1.28,3.164c0.297,0.694,0.582,1.388,0.854,2.079
		c0.272,0.693,0.532,1.436,0.77,2.192c0.168,0.591,0.158,1.142-0.027,1.683c-0.213,0.616-0.422,1.154-0.622,1.606
		c-0.303,0.704-0.592,1.407-0.867,2.111c-0.262,0.667-0.566,1.312-0.901,1.914c-0.324,0.577-0.712,1.106-1.152,1.57
		c-0.414,0.434-0.938,0.753-1.634,0.987c-0.432,0.172-0.94,0.26-1.511,0.26c-0.601,0-1.161-0.046-1.668-0.136
		c-1.086-0.312-1.932-0.042-2.376,0.661c-0.214,0.285-0.339,0.648-0.373,1.081c-0.025,0.336-0.038,0.689-0.038,1.052
		c0,0.506,0.013,0.982,0.038,1.418c0.032,0.535,0.208,1.002,0.522,1.389c0.275,0.398,0.666,0.67,1.168,0.807
		c0.377,0.1,0.766,0.199,1.168,0.301l0.137,0.016c0.254,0,0.458,0.02,0.611,0.06c0.243,0.06,0.489,0.091,0.734,0.091
		c0.244,0,0.49-0.03,0.694-0.083c0.229-0.038,0.448-0.04,0.665,0c0.363,0.064,0.715,0.034,1.047-0.089
		c0.698-0.15,1.331-0.316,1.881-0.491c0.582-0.186,1.169-0.438,1.772-0.769c1.682-1.053,3.009-2.552,3.948-4.457
		c0.888-1.797,1.747-3.656,2.574-5.57c0.103-0.311,0.193-0.609,0.269-0.889c0.075-0.271,0.155-0.508,0.24-0.717
		c1.433-3.412,2.797-6.921,4.051-10.428c1.239-3.473,2.595-6.963,4.032-10.381c0.399-1,0.793-2.025,1.165-3.046
		c0.384-1.046,0.771-2.06,1.148-3.001c0.155-0.362,0.288-0.721,0.395-1.068c0.098-0.313,0.219-0.664,0.36-1.043
		c0.549-1.396,1.098-2.808,1.649-4.23c0.546-1.42,1.095-2.828,1.626-4.184c0.068-0.139,0.117-0.272,0.152-0.412
		c0.014-0.058,0.036-0.116,0.082-0.208c0.154-0.356,0.332-0.865,0.544-1.554C333.367,29.195,332.781,28.589,332.375,28.318z"/>
</g>
<g id="mark">
	<path fill="#1D1D1B" d="M34.169,28.043c1.119,0,18.933,0.031,18.933,0.031L36.447,57.715l33.395,0.035L37.391,0h-3.143
		c-5.477,0-10.537,2.921-13.277,7.666L2.052,40.43c-2.736,4.744-2.736,10.594,0,15.338l5.202,9.006l16.322-29.049
		C26.941,28.941,33.046,28.043,34.169,28.043z"/>
	<path fill="#1D1D1B" d="M103.115,57.787l1.167-2.02c2.739-4.744,2.739-10.594,0-15.338L85.366,7.666
		C82.627,2.921,77.562,0,72.085,0h-9.467l32.465,57.779L103.115,57.787z"/>
	<path fill="#1D1D1B" d="M57.285,79.939c-7.563,0.309-11.188-4.439-11.825-5.602c-0.615-1.129-8.549-15.686-9.038-16.582
		l-16.381,29.16l0.931,1.615c2.74,4.746,7.801,7.666,13.277,7.666h37.837c5.477,0,10.542-2.92,13.28-7.666l4.938-8.555
		L57.285,79.939z"/>
	<path fill="#1D1D1B" d="M36.4,57.715c0,0,0.006,0.014,0.021,0.041l0.025-0.041H36.4z"/>
</g>
</svg>
