<?xml version="1.0" encoding="utf-8"?>
<!-- Generator: Adobe Illustrator 16.0.0, SVG Export Plug-In . SVG Version: 6.00 Build 0)  -->
<!DOCTYPE svg PUBLIC "-//W3C//DTD SVG 1.1 Tiny//EN" "http://www.w3.org/Graphics/SVG/1.1/DTD/svg11-tiny.dtd">
<svg version="1.1" baseProfile="tiny" id="logotype"
	 xmlns="http://www.w3.org/2000/svg" xmlns:xlink="http://www.w3.org/1999/xlink" x="0px" y="0px" width="333.114px"
	 height="96.198px" viewBox="0 0 333.114 96.198" xml:space="preserve">
<g id="type">
	<path fill="#FFFFFF" d="M171.367,63.667c0-0.25-0.076-0.496-0.226-0.73c-0.278-0.539-0.722-0.879-1.284-0.984
		c-0.354-0.066-0.739-0.191-1.176-0.385c-0.295-0.109-0.528-0.289-0.693-0.52c-0.2-0.318-0.322-0.76-0.364-1.314
		c-0.049-0.625-0.073-1.289-0.073-1.979V41.221c0-1.45-0.039-2.858-0.113-4.185c-0.078-1.383-0.359-2.619-0.832-3.673
		c-1.109-2.535-3.062-4.275-5.803-5.173c-2.641-0.862-5.766-1.273-9.312-1.225l-0.229,0.003l-0.103,0.104
		c-0.061,0.009-0.224,0.02-0.452,0.007c-0.519-0.029-0.893-0.008-1.104,0.045c-0.533,0.098-1.058,0.171-1.562,0.219
		c-0.538,0.051-1.073,0.13-1.631,0.242c-2.193,0.612-4.06,1.43-5.549,2.432c-1.517,1.02-2.787,2.459-3.79,4.312
		c-0.257,0.562-0.479,1.152-0.663,1.753c-0.175,0.573-0.342,1.203-0.494,1.859c-0.125,0.496-0.124,0.973,0.004,1.414
		c0.132,0.469,0.352,0.82,0.653,1.047c0.277,0.207,0.689,0.352,1.26,0.441c0.996,0.157,2.088,0.158,3.093,0
		c0.569-0.09,0.981-0.234,1.25-0.436c0.455-0.326,0.767-0.782,0.925-1.355c0.118-0.424,0.25-0.835,0.382-1.189
		c0.234-0.516,0.507-1.002,0.812-1.448c0.289-0.422,0.611-0.768,0.939-1.014c0.755-0.519,1.541-0.924,2.327-1.2
		c0.562-0.188,1.254-0.33,2.057-0.425c1.651-0.194,3.465-0.193,5.067-0.001c0.767,0.094,1.435,0.257,1.999,0.491
		c0.949,0.362,1.689,0.86,2.196,1.477c0.519,0.634,0.922,1.515,1.2,2.63c0.17,0.641,0.173,1.227,0.008,1.742
		c-0.178,0.559-0.401,1.02-0.668,1.375c-0.568,0.787-1.312,1.266-2.273,1.461c-1.09,0.223-2.279,0.488-3.541,0.792
		c-0.365,0.091-0.71,0.149-1.027,0.171c-0.39,0.029-0.78,0.1-1.143,0.203c-0.352,0.088-0.67,0.133-0.947,0.133
		c-0.374,0-0.766,0.058-1.121,0.16c-0.73,0.146-1.474,0.27-2.209,0.368c-0.771,0.104-1.528,0.261-2.255,0.468
		c-1.865,0.554-3.601,1.192-5.159,1.896c-1.643,0.742-2.959,1.898-3.904,3.417c-0.324,0.488-0.596,1.031-0.809,1.617l-0.599,1.646
		l-0.025,0.098c-0.053,0.314-0.092,0.617-0.118,0.9c-0.024,0.262-0.06,0.508-0.104,0.73l-0.011,1.682
		c0,1.611,0.241,3.018,0.713,4.172c0.629,1.574,1.447,2.816,2.431,3.691c0.965,0.861,2.236,1.637,3.783,2.307
		c0.388,0.164,0.805,0.289,1.24,0.371c0.387,0.072,0.774,0.158,1.125,0.244c0.242,0.08,0.421,0.102,0.724,0.053
		c0.025,0,0.076,0.002,0.162,0.021c0.26,0.117,0.549,0.178,0.861,0.178c0.211,0,0.425,0.021,0.636,0.064l0.731,0.01
		c0.266,0.051,0.542,0.076,0.82,0.076s0.565-0.025,0.854-0.076h0.512c0.208,0,0.452-0.027,0.737-0.084
		c0.534-0.098,1.083-0.17,1.631-0.217c0.608-0.053,1.188-0.16,1.719-0.32c0.873-0.256,1.7-0.555,2.459-0.883
		c0.769-0.332,1.498-0.711,2.184-1.135c0.471-0.312,0.953-0.678,1.435-1.084c0.411-0.346,0.837-0.576,1.341-0.711
		c0.093,0.078,0.179,0.154,0.255,0.23c0.245,0.244,0.456,0.572,0.626,0.979c0.217,0.514,0.464,0.965,0.736,1.346
		c0.473,0.65,1.283,1.17,2.479,1.586c0.7,0.244,1.416,0.367,2.129,0.367c0.475,0,0.959-0.055,1.49-0.178
		c0.24-0.08,0.471-0.121,0.682-0.121c0.345,0,0.68-0.064,1.039-0.209c0.598-0.299,1.08-0.766,1.434-1.383
		c0.365-0.641,0.463-1.438,0.287-2.371C171.377,63.892,171.367,63.743,171.367,63.667z M160.139,50.649
		c0,0.963-0.013,1.928-0.037,2.863c-0.024,0.852-0.173,1.6-0.451,2.248c-0.512,1.348-1.248,2.428-2.188,3.207
		c-0.974,0.809-2.171,1.51-3.566,2.086c-0.302,0.131-0.616,0.217-0.937,0.26c-0.389,0.051-0.8,0.131-1.264,0.248
		c-0.18,0.061-0.359,0.09-0.536,0.09l0,0c-0.045,0-0.09-0.002-0.138-0.006c-0.374-0.031-0.758,0.02-1.099,0.133
		c-0.288,0.082-0.67,0.113-1.127,0.092c-0.484-0.023-0.881-0.08-1.229-0.178c-0.497-0.098-0.981-0.053-1.461-0.143
		c-0.695-0.234-1.353-0.529-1.957-0.877c-0.578-0.334-1.048-0.746-1.395-1.225c-0.224-0.312-0.416-0.664-0.573-1.049
		c-0.145-0.348-0.219-0.742-0.22-1.193c-0.047-1.021,0.044-1.9,0.272-2.607c0.223-0.691,0.561-1.289,1.003-1.775
		c0.454-0.5,1.007-0.926,1.645-1.268c0.66-0.354,1.382-0.654,2.114-0.885c0.396-0.098,0.753-0.184,1.076-0.258
		c0.328-0.076,0.692-0.164,1.103-0.268c0.704-0.186,1.479-0.293,2.304-0.318c0.887-0.025,1.725-0.139,2.49-0.336
		c0.206-0.004,0.393-0.018,0.564-0.043c0.146-0.02,0.283-0.033,0.408-0.033l0.109-0.01c0.498-0.1,0.998-0.199,1.496-0.299
		c0.51-0.102,0.968-0.203,1.376-0.307l0.112-0.041c0.123-0.061,0.261-0.09,0.422-0.09c0.281,0,0.512-0.049,0.697-0.148
		c0.432,0.01,0.566,0.058,0.548,0.043c0.217,0.156,0.333,0.365,0.364,0.65C160.114,49.649,160.139,50.134,160.139,50.649z"/>
	<path fill="#FFFFFF" d="M205.985,53.591c-0.104-0.615-0.204-1.09-0.309-1.451l-0.025-0.07c-0.524-1.207-1.194-2.223-1.987-3.016
		c-0.775-0.777-1.693-1.485-2.73-2.107c-0.27-0.161-0.547-0.3-0.827-0.414l-0.747-0.299c-1.008-0.402-2.035-0.748-3.055-1.029
		c-0.994-0.273-2.014-0.561-3.051-0.855c-0.665-0.205-1.347-0.361-2.024-0.469c-0.618-0.094-1.245-0.238-1.868-0.43
		c-1.003-0.302-2.022-0.569-3.03-0.796c-0.933-0.21-1.78-0.551-2.522-1.015c-0.635-0.391-1.159-0.744-1.562-1.053
		c-0.34-0.26-0.644-0.721-0.905-1.374c-0.086-0.214-0.164-0.483-0.232-0.804c-0.056-0.26-0.047-0.514,0.034-0.802
		c0.269-1.159,0.752-1.951,1.479-2.423c0.787-0.51,1.81-0.912,3.018-1.191c0.232-0.045,0.465-0.081,0.699-0.104
		c0.257-0.026,0.508-0.063,0.746-0.11h0.484l0.086-0.027c0.242-0.081,0.561-0.121,0.945-0.121s0.701,0.04,0.943,0.12l0.064,0.018
		c0.303,0.062,0.615,0.076,0.916,0.046c0.16-0.016,0.318,0.009,0.486,0.076l0.062,0.02c0.738,0.197,1.437,0.397,2.075,0.594
		c0.584,0.18,1.133,0.454,1.605,0.795c0.741,0.604,1.324,1.28,1.747,2.031c0.222,0.357,0.391,0.727,0.499,1.096
		c0.164,0.559,0.511,1.007,1.035,1.334c0.329,0.196,0.828,0.328,1.574,0.413c0.717,0.083,1.328,0.062,1.744-0.044
		c0.177-0.035,0.354-0.035,0.529,0c0.355,0.072,0.717,0.036,1.066-0.104l0.109-0.043l0.082-0.084
		c0.055-0.056,0.131-0.107,0.226-0.154c0.209-0.104,0.382-0.226,0.524-0.371l0.104-0.144c0.127-0.256,0.219-0.595,0.278-1.038
		c0.06-0.448,0.028-0.891-0.092-1.314c-0.199-0.699-0.405-1.352-0.609-1.938c-0.214-0.613-0.509-1.22-0.874-1.794
		c-1.41-2.296-3.42-3.923-5.976-4.837c-2.497-0.891-5.606-1.313-9.251-1.268l-0.23,0.004l-0.095,0.096
		c-0.024-0.003-0.052-0.008-0.083-0.014c-0.319-0.062-0.591-0.062-0.82,0c-0.389,0.049-0.74,0.098-1.057,0.145
		c-0.323,0.051-0.656,0.101-1.003,0.149l-0.059,0.011c-0.999,0.251-1.964,0.518-2.87,0.795c-0.939,0.286-1.812,0.67-2.611,1.15
		c-1.033,0.672-1.965,1.459-2.766,2.338c-0.814,0.893-1.468,1.957-1.92,3.117c-0.127,0.252-0.209,0.499-0.242,0.735
		c-0.02,0.132-0.07,0.304-0.152,0.509l-0.031,0.106c-0.104,0.572-0.181,1.241-0.232,2.048c-0.053,0.827,0.002,1.578,0.166,2.23
		c0.098,0.393,0.184,0.76,0.257,1.104c0.081,0.381,0.206,0.77,0.37,1.152c0.48,1.12,1.158,2.069,2.017,2.82
		c0.819,0.718,1.731,1.368,2.69,1.924c0.431,0.27,0.899,0.49,1.395,0.656c0.406,0.135,0.861,0.303,1.387,0.509
		c1.629,0.664,3.396,1.141,5.254,1.42c1.755,0.266,3.477,0.666,5.116,1.191c0.217,0.133,0.437,0.199,0.652,0.199
		c0.042,0,0.117,0.008,0.22,0.041l1.645,0.598c0.506,0.186,0.97,0.416,1.41,0.709c0.649,0.371,1.186,0.777,1.591,1.207
		c0.38,0.4,0.687,1.037,0.923,1.922c0.026,0.082,0.072,0.25,0.129,0.588c0.031,0.197,0.019,0.369-0.044,0.523l-0.026,0.084
		c-0.318,1.406-0.852,2.406-1.587,2.969c-0.788,0.602-1.881,1.098-3.209,1.467c-0.233,0.045-0.49,0.08-0.763,0.102
		c-0.312,0.027-0.628,0.066-0.986,0.127c-0.105,0.027-0.311,0.059-0.686,0.059l-0.137,0.018c-0.35,0.088-0.794,0.133-1.322,0.133
		c-0.521,0-0.935-0.043-1.227-0.129l-0.566-0.021l-1.49-0.213c-0.828-0.244-1.614-0.488-2.336-0.73
		c-0.686-0.229-1.312-0.553-1.874-0.975c-0.761-0.535-1.378-1.314-1.841-2.336c-0.183-0.361-0.332-0.766-0.445-1.199
		c-0.158-0.602-0.471-1.072-0.941-1.408c-0.219-0.146-0.561-0.258-1.077-0.35c-0.433-0.076-0.886-0.141-1.345-0.191
		c-0.48-0.053-0.959-0.066-1.441-0.041c-0.516,0.029-0.916,0.104-1.223,0.227l-0.072,0.033c-0.419,0.24-0.72,0.486-0.918,0.75
		l-0.073,0.129c-0.124,0.309-0.198,0.697-0.227,1.186c-0.03,0.502,0.015,0.928,0.134,1.277c0.253,0.863,0.537,1.664,0.846,2.383
		c0.312,0.73,0.709,1.443,1.181,2.123c0.884,1.25,1.942,2.281,3.144,3.064c1.189,0.775,2.594,1.426,4.152,1.928
		c0.43,0.16,0.849,0.281,1.246,0.361c0.365,0.072,0.742,0.156,1.133,0.256l0.137,0.016c0.336,0,0.611,0.02,0.819,0.057
		c0.315,0.115,0.671,0.16,1.093,0.129c0.272-0.018,0.525,0.01,0.753,0.086l0.087,0.027h0.862c0.283,0.051,0.645,0.076,1.101,0.076
		c0.454,0,0.814-0.025,1.1-0.076h0.695l0.111-0.01c0.457-0.092,0.924-0.139,1.386-0.139c0.534,0,1.075-0.055,1.606-0.16l0.067-0.018
		c0.419-0.141,0.854-0.246,1.294-0.314c0.496-0.078,0.991-0.199,1.484-0.363c1.582-0.561,3.027-1.246,4.299-2.035
		c1.315-0.816,2.41-1.922,3.248-3.285c0.266-0.424,0.507-0.908,0.721-1.438c0.211-0.533,0.394-1.082,0.539-1.623
		c0.115-0.398,0.173-0.803,0.173-1.203c0-0.295,0.043-0.596,0.128-0.893l0.021-0.902c0-0.449-0.013-0.877-0.039-1.275
		C206.155,54.353,206.089,53.96,205.985,53.591z"/>
	<path fill="#FFFFFF" d="M242.348,53.593c-0.102-0.598-0.204-1.086-0.308-1.451l-0.026-0.072c-0.526-1.207-1.195-2.223-1.987-3.018
		c-0.778-0.777-1.696-1.484-2.729-2.105c-0.272-0.162-0.55-0.301-0.829-0.414l-0.093-0.037c-0.218-0.086-0.435-0.172-0.653-0.262
		c-1.012-0.402-2.039-0.75-3.054-1.029c-0.996-0.273-2.015-0.561-3.051-0.855c-0.668-0.205-1.351-0.362-2.025-0.469
		c-0.616-0.094-1.243-0.238-1.868-0.431c-1.01-0.302-2.03-0.57-3.032-0.795c-0.932-0.21-1.779-0.551-2.521-1.015
		c-0.632-0.389-1.156-0.742-1.562-1.053c-0.34-0.26-0.644-0.721-0.904-1.374c-0.087-0.214-0.165-0.483-0.233-0.804
		c-0.056-0.262-0.047-0.514,0.035-0.802c0.268-1.159,0.751-1.952,1.479-2.423c0.787-0.51,1.811-0.912,3.019-1.191
		c0.231-0.045,0.464-0.081,0.696-0.104c0.261-0.027,0.506-0.063,0.748-0.111h0.484l0.087-0.028c0.24-0.08,0.559-0.12,0.943-0.12
		c0.386,0,0.704,0.04,0.946,0.121l0.064,0.017c0.302,0.062,0.613,0.077,0.916,0.046c0.156-0.016,0.32,0.01,0.485,0.076l0.062,0.02
		c0.729,0.195,1.428,0.395,2.074,0.594c0.586,0.18,1.135,0.454,1.606,0.795c0.739,0.603,1.322,1.278,1.747,2.031
		c0.22,0.353,0.39,0.721,0.499,1.094c0.163,0.561,0.509,1.008,1.036,1.336c0.328,0.196,0.827,0.328,1.572,0.413
		c0.718,0.083,1.328,0.062,1.746-0.044c0.176-0.035,0.352-0.035,0.527,0c0.357,0.071,0.718,0.036,1.068-0.104l0.107-0.043
		l0.083-0.084c0.055-0.056,0.131-0.107,0.224-0.154c0.207-0.102,0.378-0.223,0.523-0.368l0.065-0.064l0.041-0.082
		c0.128-0.256,0.219-0.595,0.278-1.038c0.06-0.448,0.029-0.891-0.092-1.314c-0.202-0.705-0.406-1.356-0.607-1.939
		c-0.216-0.613-0.512-1.219-0.876-1.791c-1.409-2.297-3.421-3.924-5.977-4.838c-2.496-0.891-5.609-1.312-9.25-1.268l-0.229,0.004
		l-0.096,0.096c-0.025-0.003-0.053-0.008-0.083-0.014c-0.322-0.062-0.589-0.062-0.823,0c-0.386,0.049-0.737,0.098-1.055,0.145
		c-0.323,0.051-0.656,0.101-1.002,0.149l-0.059,0.011c-0.993,0.25-1.96,0.517-2.871,0.795c-0.939,0.287-1.812,0.67-2.611,1.15
		c-1.036,0.674-1.966,1.461-2.766,2.338c-0.813,0.891-1.467,1.957-1.922,3.122c-0.127,0.255-0.207,0.501-0.239,0.728
		c-0.021,0.134-0.071,0.307-0.153,0.512l-0.03,0.107c-0.106,0.578-0.185,1.267-0.232,2.046c-0.054,0.826,0.001,1.577,0.165,2.229
		c0.096,0.395,0.184,0.763,0.258,1.104c0.082,0.385,0.206,0.773,0.369,1.153c0.479,1.12,1.158,2.069,2.018,2.821
		c0.82,0.719,1.73,1.369,2.69,1.924c0.435,0.271,0.901,0.492,1.394,0.656c0.413,0.137,0.868,0.304,1.388,0.509
		c1.627,0.662,3.395,1.141,5.252,1.42c1.757,0.266,3.479,0.666,5.117,1.191c0.221,0.135,0.436,0.199,0.655,0.199
		c0.04,0,0.115,0.008,0.217,0.041l1.646,0.598c0.502,0.184,0.966,0.414,1.408,0.709c0.649,0.371,1.186,0.777,1.592,1.207
		c0.381,0.402,0.688,1.039,0.923,1.922c0.026,0.082,0.071,0.25,0.128,0.588c0.032,0.197,0.02,0.369-0.043,0.523l-0.026,0.084
		c-0.316,1.406-0.851,2.406-1.587,2.969c-0.787,0.602-1.88,1.098-3.209,1.467c-0.233,0.045-0.487,0.08-0.761,0.102
		c-0.313,0.027-0.627,0.066-0.988,0.127c-0.104,0.027-0.31,0.059-0.686,0.059l-0.137,0.018c-0.351,0.088-0.794,0.133-1.321,0.133
		c-0.521,0-0.936-0.043-1.229-0.129l-0.564-0.021l-1.493-0.213c-0.814-0.24-1.602-0.484-2.335-0.73
		c-0.687-0.229-1.313-0.553-1.874-0.975c-0.761-0.535-1.378-1.314-1.841-2.334c-0.181-0.363-0.331-0.766-0.444-1.201
		c-0.158-0.6-0.469-1.07-0.944-1.41c-0.221-0.146-0.562-0.258-1.074-0.348c-0.437-0.078-0.889-0.141-1.346-0.191
		c-0.479-0.053-0.957-0.066-1.44-0.041c-0.518,0.029-0.918,0.104-1.225,0.227l-0.072,0.033c-0.418,0.24-0.718,0.486-0.917,0.75
		l-0.073,0.129c-0.125,0.312-0.199,0.699-0.226,1.186c-0.03,0.502,0.015,0.926,0.134,1.277c0.254,0.865,0.538,1.668,0.845,2.383
		c0.312,0.73,0.709,1.443,1.181,2.123c0.888,1.252,1.945,2.283,3.145,3.064c1.191,0.775,2.596,1.428,4.151,1.928
		c0.429,0.16,0.849,0.281,1.246,0.361c0.365,0.072,0.743,0.156,1.133,0.256l0.138,0.016c0.336,0,0.611,0.02,0.819,0.057
		c0.314,0.115,0.669,0.16,1.092,0.129c0.271-0.018,0.526,0.01,0.753,0.086l0.087,0.027h0.863c0.283,0.051,0.644,0.076,1.101,0.076
		c0.454,0,0.813-0.025,1.098-0.076h0.698l0.11-0.01c0.457-0.092,0.923-0.139,1.386-0.139c0.534,0,1.074-0.055,1.605-0.16
		l0.067-0.018c0.42-0.141,0.854-0.246,1.295-0.314c0.497-0.078,0.992-0.199,1.484-0.363c1.583-0.562,3.029-1.246,4.299-2.035
		c1.315-0.816,2.409-1.922,3.249-3.285c0.263-0.422,0.504-0.904,0.718-1.436c0.208-0.52,0.391-1.068,0.542-1.627
		c0.114-0.398,0.172-0.803,0.172-1.201c0-0.295,0.043-0.596,0.128-0.893l0.021-0.902c0-0.449-0.013-0.877-0.038-1.273
		C242.52,54.364,242.452,53.97,242.348,53.593z"/>
	<path fill="#FFFFFF" d="M281.624,45.144c-0.027-0.36-0.066-0.722-0.116-1.084l-0.018-0.075c-0.197-0.694-0.357-1.38-0.473-2.04
		c-0.133-0.734-0.33-1.448-0.59-2.123c-0.248-0.645-0.471-1.285-0.661-1.908c-0.212-0.69-0.511-1.34-0.874-1.912
		c-0.56-0.964-1.252-1.99-2.057-3.048c-0.31-0.415-0.696-0.843-1.149-1.27c-0.435-0.409-0.866-0.776-1.282-1.089l-0.087-0.053
		c-0.134-0.066-0.245-0.156-0.348-0.275c-0.197-0.229-0.455-0.412-0.766-0.545c-1.271-0.809-2.714-1.463-4.285-1.945
		c-1.594-0.488-3.492-0.713-5.64-0.66l-0.228,0.004l-0.065,0.068c-0.193-0.047-0.377-0.045-0.543,0.002
		c-0.235,0.004-0.452,0.018-0.644,0.042c-0.211,0.026-0.447,0.065-0.721,0.12c-0.695,0.148-1.354,0.286-1.976,0.41
		c-0.658,0.131-1.31,0.331-1.938,0.594c-2.1,0.869-3.893,1.975-5.328,3.283c-1.429,1.303-2.72,2.863-3.854,4.673
		c-0.31,0.568-0.583,1.156-0.816,1.748c-0.22,0.562-0.455,1.118-0.703,1.667c-0.318,0.74-0.545,1.541-0.675,2.379
		c-0.123,0.783-0.284,1.572-0.482,2.369c-0.061,0.3-0.077,0.619-0.047,0.949c0.016,0.187-0.007,0.358-0.074,0.527l-0.039,0.1v0.879
		c-0.052,0.291-0.064,0.627-0.037,1.025c0.026,0.371,0.062,0.662,0.111,0.886v0.982l0.014,0.121c0.095,0.43,0.166,0.861,0.215,1.287
		c0.053,0.482,0.133,0.936,0.23,1.318c0.044,0.221,0.065,0.387,0.065,0.49c0,0.199,0.03,0.422,0.104,0.701
		c0.192,0.582,0.35,1.166,0.469,1.732c0.133,0.639,0.334,1.258,0.591,1.82c0.713,1.732,1.604,3.322,2.651,4.725
		c1.057,1.42,2.351,2.635,3.87,3.629c0.863,0.508,1.686,0.945,2.426,1.289c0.248,0.125,0.478,0.205,0.682,0.238
		c0.066,0.012,0.183,0.045,0.366,0.137l0.055,0.023c0.419,0.158,0.863,0.301,1.322,0.428c0.458,0.127,0.914,0.24,1.383,0.346
		c0.269,0.053,0.566,0.094,0.889,0.121c0.275,0.021,0.53,0.057,0.736,0.098c0.247,0.061,0.492,0.09,0.731,0.09
		c0.159,0,0.349,0.021,0.562,0.066l0.721,0.01c0.235,0.051,0.515,0.074,0.851,0.074c0.33,0,0.638-0.025,0.911-0.074h0.697l0.11-0.01
		c0.506-0.104,0.915-0.053,1.412-0.148c0.544-0.1,1.061-0.186,1.552-0.26c0.535-0.08,1.081-0.229,1.592-0.434
		c1.997-0.666,3.68-1.541,5.001-2.602c1.316-1.059,2.503-2.428,3.531-4.072c0.674-1.092,1.222-2.346,1.629-3.719
		c0.4-1.281-0.069-1.969-0.553-2.324c-0.243-0.221-0.607-0.361-1.114-0.424c-0.408-0.051-0.847-0.088-1.308-0.115
		c-0.479-0.025-0.96-0.012-1.44,0.041c-0.531,0.059-0.901,0.148-1.145,0.27c-0.682,0.311-1.168,0.814-1.447,1.498
		c-0.21,0.514-0.462,1.018-0.76,1.516c-0.276,0.51-0.607,0.994-0.981,1.439c-0.363,0.43-0.799,0.807-1.315,1.137
		c-0.46,0.322-0.962,0.59-1.491,0.797c-0.56,0.219-1.185,0.426-1.858,0.619c-0.641,0.184-1.519,0.277-2.612,0.277
		c-1.093,0-1.973-0.094-2.612-0.277l-0.155-0.023c-0.402,0-0.537-0.033-0.596-0.053c-0.348-0.098-0.695-0.197-1.045-0.299
		c-0.322-0.092-0.608-0.201-0.904-0.35c-2.493-1.082-4.309-2.92-5.406-5.496c-0.179-0.355-0.313-0.729-0.403-1.113
		c-0.103-0.424-0.202-0.838-0.302-1.242c-0.039-0.152-0.058-0.307-0.058-0.459c0-0.227-0.028-0.48-0.084-0.779l-0.032-0.107
		c-0.049-0.117-0.046-0.234,0.008-0.381c0.105-0.291,0.188-0.439,0.237-0.516c0.188-0.281,0.32-0.375,0.42-0.428
		c0.168-0.1,0.41-0.162,0.718-0.182c0.388-0.025,0.772-0.037,1.162-0.037h19.155c0.44,0,0.957,0.012,1.547,0.037
		c1.162,0.051,2.509,0.078,3.516-0.082c0.575-0.09,1.017-0.264,1.348-0.527l0.049-0.043c0.344-0.346,0.556-0.883,0.645-1.638
		c0.082-0.676,0.068-1.302-0.037-1.83C281.684,45.816,281.646,45.478,281.624,45.144z M267.224,34.423
		c1.261,0.518,2.302,1.156,3.09,1.896c0.805,0.759,1.554,1.701,2.217,2.789c0.523,0.906,0.932,1.893,1.218,2.941
		c0.069,0.244,0.07,0.469,0.004,0.689c-0.082,0.263-0.178,0.469-0.261,0.58c-0.121,0.139-0.475,0.371-1.483,0.371l-0.173-0.002
		c-1.054-0.025-1.956-0.039-2.707-0.039h-11.372c-0.703,0-1.543,0.014-2.522,0.039l-0.209,0.002c-0.902,0-1.311-0.164-1.52-0.319
		c-0.109-0.073-0.24-0.196-0.277-0.501c-0.043-0.332-0.021-0.695,0.065-1.078c0.089-0.406,0.206-0.793,0.347-1.146
		c0.14-0.348,0.277-0.635,0.426-0.886c0.67-1.292,1.43-2.379,2.261-3.233c0.809-0.832,1.905-1.54,3.261-2.104
		c0.319-0.091,0.658-0.171,1.011-0.241c0.382-0.078,0.777-0.166,1.225-0.28c0.07-0.022,0.171-0.027,0.276-0.013
		c0.273,0.034,0.519-0.004,0.74-0.109h1.127c0.396,0,0.778,0.045,1.133,0.133c0.407,0.104,0.787,0.191,1.143,0.268
		C266.567,34.25,266.895,34.33,267.224,34.423z"/>
	<path fill="#FFFFFF" d="M293.259,13.96l-0.062-0.072c-0.457-0.457-1.133-0.688-2.005-0.688h-2.059l-0.108-0.013l-0.119,0.06
		c-0.244-0.047-0.461-0.021-0.662,0.069c-0.661,0.244-1.11,0.558-1.364,0.941c-0.324,0.452-0.472,1.062-0.442,1.808
		c0.025,0.617,0.038,1.196,0.038,1.738v45.339c0,0.662,0.012,1.299,0.037,1.895c0.029,0.695,0.197,1.291,0.498,1.771l0.045,0.062
		c0.353,0.424,0.867,0.654,1.525,0.688c0.494,0.025,1.017,0.037,1.601,0.037h1.115l0.067-0.016c0.386-0.096,0.712-0.168,0.976-0.217
		c0.434-0.078,0.786-0.326,1.013-0.705c0.307-0.49,0.461-1.145,0.461-1.945V17.429c0-0.595-0.013-1.195-0.039-1.783
		C293.743,14.966,293.569,14.398,293.259,13.96z"/>
	<path fill="#FFFFFF" d="M332.375,28.318c-0.326-0.193-0.725-0.309-1.188-0.341c-0.378-0.024-0.781-0.038-1.196-0.038
		c-0.76,0-1.466,0.025-2.103,0.076c-0.786,0.064-1.413,0.389-1.846,0.949c-0.301,0.359-0.526,0.793-0.67,1.285
		c-0.13,0.438-0.26,0.829-0.406,1.219c-0.149,0.451-0.302,0.915-0.45,1.39c-0.142,0.446-0.312,0.894-0.511,1.347
		c-0.113,0.283-0.194,0.529-0.247,0.746c-0.043,0.169-0.108,0.365-0.199,0.592c-0.254,0.609-0.476,1.248-0.658,1.898
		c-0.168,0.602-0.375,1.195-0.615,1.775c-0.113,0.281-0.195,0.525-0.251,0.75c-0.04,0.17-0.107,0.371-0.203,0.609
		c-0.153,0.408-0.307,0.854-0.459,1.337c-0.142,0.446-0.31,0.892-0.501,1.325l-0.032,0.092c-0.094,0.377-0.166,0.688-0.218,0.935
		c-0.495,1.099-0.924,2.249-1.271,3.417c-0.346,1.16-0.744,2.316-1.183,3.437c-0.353,0.9-0.662,1.854-0.918,2.828
		c-0.241,0.912-0.556,1.785-0.95,2.625c-0.097,0.24-0.257,0.57-0.463,0.959c-0.052,0.098-0.112,0.17-0.142,0.17
		c-0.011,0-0.043-0.002-0.141-0.037c-0.127-0.037-0.271-0.109-0.379-0.379c-0.152-0.377-0.301-0.744-0.441-1.064
		c-0.25-0.695-0.499-1.404-0.747-2.127c-0.258-0.746-0.54-1.477-0.837-2.17l-0.051-0.094c-0.037-0.055-0.054-0.105-0.054-0.17
		c0-0.262-0.069-0.535-0.191-0.777c-0.597-1.441-1.146-2.937-1.632-4.446c-0.5-1.552-1.059-3.075-1.661-4.532
		c-0.237-0.569-0.43-1.146-0.573-1.716c-0.157-0.63-0.369-1.242-0.625-1.802c-0.24-0.575-0.46-1.177-0.656-1.789
		c-0.204-0.635-0.436-1.267-0.685-1.863c-0.243-0.631-0.465-1.273-0.661-1.908c-0.203-0.662-0.435-1.328-0.695-2.008
		c-0.2-0.447-0.385-0.869-0.56-1.271c-0.222-0.501-0.585-0.912-1.079-1.223c-0.501-0.312-1.205-0.449-2.187-0.422
		c-0.841,0.025-1.584,0.037-2.228,0.037l-0.108-0.01l-0.118,0.058c-0.229-0.046-0.435-0.024-0.627,0.054
		c-0.573,0.139-0.976,0.396-1.176,0.732c-0.25,0.352-0.479,0.956-0.144,1.838c0.195,0.514,0.344,0.919,0.455,1.248
		c0.441,1.082,0.868,2.171,1.265,3.236c0.399,1.076,0.856,2.206,1.354,3.347c0.897,2.194,1.781,4.387,2.655,6.579
		c0.872,2.197,1.759,4.392,2.648,6.566c0.251,0.703,0.501,1.381,0.753,2.031c0.243,0.637,0.515,1.303,0.824,2.029
		c0.398,0.996,0.797,2.014,1.194,3.057c0.394,1.031,0.824,2.096,1.28,3.164c0.297,0.695,0.582,1.387,0.854,2.08
		c0.272,0.691,0.532,1.436,0.77,2.191c0.168,0.592,0.158,1.143-0.027,1.682c-0.213,0.617-0.422,1.156-0.622,1.607
		c-0.303,0.705-0.592,1.408-0.867,2.111c-0.262,0.668-0.566,1.312-0.901,1.914c-0.324,0.576-0.712,1.105-1.152,1.57
		c-0.414,0.434-0.938,0.754-1.634,0.986c-0.432,0.174-0.94,0.26-1.511,0.26c-0.601,0-1.161-0.045-1.668-0.135
		c-1.086-0.311-1.932-0.041-2.376,0.662c-0.214,0.285-0.339,0.648-0.373,1.08c-0.025,0.336-0.038,0.689-0.038,1.053
		c0,0.506,0.013,0.982,0.038,1.416c0.032,0.535,0.208,1.004,0.522,1.391c0.275,0.398,0.666,0.67,1.168,0.805
		c0.377,0.1,0.766,0.199,1.168,0.301l0.137,0.018c0.254,0,0.458,0.02,0.611,0.059c0.243,0.061,0.489,0.092,0.734,0.092
		c0.244,0,0.49-0.031,0.694-0.084c0.229-0.037,0.448-0.041,0.665,0c0.363,0.064,0.715,0.035,1.047-0.088
		c0.698-0.15,1.331-0.316,1.881-0.492c0.582-0.186,1.169-0.439,1.772-0.77c1.682-1.051,3.009-2.551,3.948-4.455
		c0.888-1.799,1.747-3.656,2.574-5.572c0.103-0.309,0.193-0.607,0.269-0.887c0.075-0.271,0.155-0.508,0.24-0.717
		c1.433-3.414,2.797-6.922,4.051-10.43c1.239-3.473,2.595-6.961,4.032-10.381c0.399-1,0.793-2.024,1.165-3.044
		c0.384-1.046,0.771-2.061,1.148-3.001c0.155-0.362,0.288-0.722,0.395-1.068c0.098-0.313,0.219-0.664,0.36-1.044
		c0.549-1.396,1.098-2.807,1.649-4.229c0.546-1.421,1.095-2.828,1.626-4.185c0.068-0.139,0.117-0.271,0.152-0.412
		c0.014-0.057,0.036-0.115,0.082-0.208c0.154-0.356,0.332-0.864,0.544-1.554C333.367,29.195,332.781,28.588,332.375,28.318z"/>
</g>
<g id="mark">
	<path fill="#C8E4DF" d="M34.169,28.043c1.119,0,18.933,0.031,18.933,0.031L36.447,57.715l33.395,0.036L37.391,0h-3.143
		c-5.477,0-10.537,2.921-13.277,7.666L2.052,40.431c-2.736,4.744-2.736,10.593,0,15.337l5.202,9.006l16.322-29.049
		C26.941,28.941,33.046,28.043,34.169,28.043z"/>
	<path fill="#C8E4DF" d="M103.115,57.788l1.167-2.021c2.739-4.744,2.739-10.593,0-15.337L85.366,7.666
		C82.627,2.921,77.562,0,72.085,0h-9.467l32.465,57.78L103.115,57.788z"/>
	<path fill="#C8E4DF" d="M57.285,79.94c-7.563,0.309-11.188-4.44-11.825-5.603c-0.615-1.128-8.549-15.685-9.038-16.582
		L20.041,86.917l0.931,1.615c2.74,4.745,7.801,7.666,13.277,7.666h37.837c5.477,0,10.542-2.921,13.28-7.666l4.938-8.556
		L57.285,79.94z"/>
	<path fill="#C8E4DF" d="M36.4,57.715c0,0,0.006,0.015,0.021,0.041l0.025-0.041H36.4z"/>
</g>
</svg>
