<?xml version="1.0" encoding="utf-8"?>
<!-- Generator: Adobe Illustrator 16.0.0, SVG Export Plug-In . SVG Version: 6.00 Build 0)  -->
<!DOCTYPE svg PUBLIC "-//W3C//DTD SVG 1.1 Tiny//EN" "http://www.w3.org/Graphics/SVG/1.1/DTD/svg11-tiny.dtd">
<svg version="1.1" baseProfile="tiny" id="logotype"
	 xmlns="http://www.w3.org/2000/svg" xmlns:xlink="http://www.w3.org/1999/xlink" x="0px" y="0px" width="106.336px"
	 height="96.198px" viewBox="0 0 106.336 96.198" xml:space="preserve">
<g id="mark">
	<path fill="#02BCE6" d="M34.169,28.043c1.119,0,18.933,0.031,18.933,0.031L36.447,57.715l33.395,0.035L37.391,0h-3.143
		c-5.477,0-10.537,2.921-13.277,7.666L2.052,40.43c-2.736,4.744-2.736,10.594,0,15.338l5.202,9.006l16.322-29.049
		C26.941,28.941,33.046,28.043,34.169,28.043z"/>
	<path fill="#02BCE6" d="M103.115,57.787l1.167-2.02c2.739-4.744,2.739-10.594,0-15.338L85.366,7.666
		C82.627,2.921,77.562,0,72.085,0h-9.467l32.465,57.779L103.115,57.787z"/>
	<path fill="#02BCE6" d="M57.285,79.939c-7.563,0.309-11.188-4.439-11.825-5.602c-0.615-1.129-8.549-15.686-9.038-16.582
		l-16.381,29.16l0.931,1.615c2.74,4.746,7.801,7.666,13.277,7.666h37.837c5.477,0,10.542-2.92,13.28-7.666l4.938-8.555
		L57.285,79.939z"/>
	<path fill="#02BCE6" d="M36.4,57.715c0,0,0.006,0.014,0.021,0.041l0.025-0.041H36.4z"/>
</g>
</svg>
